{
    "asset" : {
        "generator" : "Khronos glTF Blender I/O v1.7.33",
        "version" : "2.0"
    },
    "scene" : 0,
    "scenes" : [
        {
            "name" : "Scene",
            "nodes" : [
                0
            ]
        }
    ],
    "nodes" : [
        {
            "mesh" : 0,
            "name" : "pillars"
        }
    ],
    "meshes" : [
        {
            "name" : "pillars",
            "primitives" : [
                {
                    "attributes" : {
                        "POSITION" : 0,
                        "NORMAL" : 1,
                        "TEXCOORD_0" : 2
                    },
                    "indices" : 3
                }
            ]
        }
    ],
    "accessors" : [
        {
            "bufferView" : 0,
            "componentType" : 5126,
            "count" : 2766,
            "max" : [
                37.115047454833984,
                100.00310516357422,
                94.25720977783203
            ],
            "min" : [
                -37.115047454833984,
                0.0031017933506518602,
                -194.25701904296875
            ],
            "type" : "VEC3"
        },
        {
            "bufferView" : 1,
            "componentType" : 5126,
            "count" : 2766,
            "type" : "VEC3"
        },
        {
            "bufferView" : 2,
            "componentType" : 5126,
            "count" : 2766,
            "type" : "VEC2"
        },
        {
            "bufferView" : 3,
            "componentType" : 5123,
            "count" : 6912,
            "type" : "SCALAR"
        }
    ],
    "bufferViews" : [
        {
            "buffer" : 0,
            "byteLength" : 33192,
            "byteOffset" : 0
        },
        {
            "buffer" : 0,
            "byteLength" : 33192,
            "byteOffset" : 33192
        },
        {
            "buffer" : 0,
            "byteLength" : 22128,
            "byteOffset" : 66384
        },
        {
            "buffer" : 0,
            "byteLength" : 13824,
            "byteOffset" : 88512
        }
    ],
    "buffers" : [
        {
            "byteLength" : 102336,
            "uri" : "data:application/octet-stream;base64,"
        }
    ]
}
