{
    "asset" : {
        "generator" : "Khronos glTF Blender I/O v1.7.33",
        "version" : "2.0"
    },
    "scene" : 0,
    "scenes" : [
        {
            "name" : "Scene",
            "nodes" : [
                0
            ]
        }
    ],
    "nodes" : [
        {
            "mesh" : 0,
            "name" : "spheres"
        }
    ],
    "meshes" : [
        {
            "name" : "spheres",
            "primitives" : [
                {
                    "attributes" : {
                        "POSITION" : 0,
                        "NORMAL" : 1,
                        "TANGENT" : 2,
                        "TEXCOORD_0" : 3
                    },
                    "indices" : 4
                }
            ]
        }
    ],
    "accessors" : [
        {
            "bufferView" : 0,
            "componentType" : 5126,
            "count" : 6316,
            "max" : [
                4.622869968414307,
                8.948003768920898,
                114.62262725830078
            ],
            "min" : [
                -4.622870922088623,
                -0.2977304458618164,
                -214.62310791015625
            ],
            "type" : "VEC3"
        },
        {
            "bufferView" : 1,
            "componentType" : 5126,
            "count" : 6316,
            "type" : "VEC3"
        },
        {
            "bufferView" : 2,
            "componentType" : 5126,
            "count" : 6316,
            "type" : "VEC4"
        },
        {
            "bufferView" : 3,
            "componentType" : 5126,
            "count" : 6316,
            "type" : "VEC2"
        },
        {
            "bufferView" : 4,
            "componentType" : 5123,
            "count" : 33120,
            "type" : "SCALAR"
        }
    ],
    "bufferViews" : [
        {
            "buffer" : 0,
            "byteLength" : 75792,
            "byteOffset" : 0
        },
        {
            "buffer" : 0,
            "byteLength" : 75792,
            "byteOffset" : 75792
        },
        {
            "buffer" : 0,
            "byteLength" : 101056,
            "byteOffset" : 151584
        },
        {
            "buffer" : 0,
            "byteLength" : 50528,
            "byteOffset" : 252640
        },
        {
            "buffer" : 0,
            "byteLength" : 66240,
            "byteOffset" : 303168
        }
    ],
    "buffers" : [
        {
            "byteLength" : 369408,
            "uri" : "data:application/octet-stream;base64,"
        }
    ]
}
